<?xml version="1.0" encoding="UTF-8" standalone="no"?>
<!-- Generator: Adobe Illustrator 16.0.0, SVG Export Plug-In . SVG Version: 6.00 Build 0)  -->

<svg
   xmlns:dc="http://purl.org/dc/elements/1.1/"
   xmlns:cc="http://creativecommons.org/ns#"
   xmlns:rdf="http://www.w3.org/1999/02/22-rdf-syntax-ns#"
   xmlns:svg="http://www.w3.org/2000/svg"
   xmlns="http://www.w3.org/2000/svg"
   xmlns:sodipodi="http://sodipodi.sourceforge.net/DTD/sodipodi-0.dtd"
   xmlns:inkscape="http://www.inkscape.org/namespaces/inkscape"
   version="1.1"
   id="Layer_1"
   x="0px"
   y="0px"
   width="266.893px"
   height="266.895px"
   viewBox="0 0 266.893 266.895"
   enable-background="new 0 0 266.893 266.895"
   xml:space="preserve"
   inkscape:version="0.91 r13725"
   sodipodi:docname="F_icon.svg"><metadata
     id="metadata9"><rdf:RDF><cc:Work
         rdf:about=""><dc:format>image/svg+xml</dc:format><dc:type
           rdf:resource="http://purl.org/dc/dcmitype/StillImage" /></cc:Work></rdf:RDF></metadata><defs
     id="defs7" /><sodipodi:namedview
     pagecolor="#ffffff"
     bordercolor="#666666"
     borderopacity="1"
     objecttolerance="10"
     gridtolerance="10"
     guidetolerance="10"
     inkscape:pageopacity="0"
     inkscape:pageshadow="2"
     inkscape:window-width="1920"
     inkscape:window-height="992"
     id="namedview5"
     showgrid="false"
     inkscape:zoom="1.9168421"
     inkscape:cx="149.46631"
     inkscape:cy="173.54014"
     inkscape:window-x="0"
     inkscape:window-y="31"
     inkscape:window-maximized="1"
     inkscape:current-layer="Layer_1" /><path
     id="f"
     d="m 134.0822,204.13223 0,-62.66084 21.03219,0 3.14927,-24.42005 -24.18146,0 0,-15.59066 c 0,-7.070165 1.96327,-11.888249 12.10172,-11.888249 l 12.9311,-0.0057 0,-21.841482 c -2.23639,-0.297599 -9.91242,-0.962487 -18.84289,-0.962487 -18.64387,0 -31.40796,11.380324 -31.40796,32.279408 l 0,18.00912 -21.086184,0 0,24.42005 21.086184,0 0,62.66084 25.21803,0 z"
     style="fill:#ffffff"
     inkscape:connector-curvature="0" /><path
     inkscape:connector-curvature="0"
     d="m 215.31413,147.86123 c -4.25944,24.67351 -19.53896,47.13816 -43.82138,59.2519 -35.88889,17.93628 -78.853129,7.572 -103.098598,-22.60059 L 96.841266,170.5081 21.120423,133.57442 6.9260111,214.65759 38.717635,199.35191 c 33.042935,46.2572 95.728675,63.35207 147.978705,37.23727 30.29159,-15.13725 50.53038,-41.74505 58.89301,-71.7878 L 215.31413,147.86123 Z M 95.402532,59.828546 C 131.28221,41.889265 174.24373,52.232552 198.48328,82.423298 l -28.48026,13.983761 75.71763,36.942511 14.2154,-81.116189 -31.78247,15.368628 C 195.11082,21.314904 132.43123,4.2619101 80.17487,30.364745 49.886262,45.492763 29.656629,72.103852 21.287694,102.13465 l 30.278211,16.93091 C 55.828272,94.383136 71.117198,71.951222 95.402532,59.828546 Z"
     id="path4"
     style="fill:#ffffff" /></svg>