<?xml version="1.0" encoding="UTF-8" standalone="no"?>
<!-- Generator: Adobe Illustrator 18.1.0, SVG Export Plug-In . SVG Version: 6.00 Build 0)  -->

<svg
   xmlns:dc="http://purl.org/dc/elements/1.1/"
   xmlns:cc="http://creativecommons.org/ns#"
   xmlns:rdf="http://www.w3.org/1999/02/22-rdf-syntax-ns#"
   xmlns:svg="http://www.w3.org/2000/svg"
   xmlns="http://www.w3.org/2000/svg"
   xmlns:sodipodi="http://sodipodi.sourceforge.net/DTD/sodipodi-0.dtd"
   xmlns:inkscape="http://www.inkscape.org/namespaces/inkscape"
   version="1.1"
   id="Capa_1"
   x="0px"
   y="0px"
   viewBox="0 0 100 100"
   enable-background="new 0 0 100 100"
   xml:space="preserve"
   inkscape:version="0.91 r13725"
   sodipodi:docname="birthday.svg"><metadata
     id="metadata45"><rdf:RDF><cc:Work
         rdf:about=""><dc:format>image/svg+xml</dc:format><dc:type
           rdf:resource="http://purl.org/dc/dcmitype/StillImage" /></cc:Work></rdf:RDF></metadata><defs
     id="defs43" /><sodipodi:namedview
     pagecolor="#ffffff"
     bordercolor="#666666"
     borderopacity="1"
     objecttolerance="10"
     gridtolerance="10"
     guidetolerance="10"
     inkscape:pageopacity="0"
     inkscape:pageshadow="2"
     inkscape:window-width="892"
     inkscape:window-height="998"
     id="namedview41"
     showgrid="false"
     inkscape:zoom="2.36"
     inkscape:cx="50"
     inkscape:cy="50"
     inkscape:window-x="1008"
     inkscape:window-y="62"
     inkscape:window-maximized="0"
     inkscape:current-layer="Capa_1" /><g
     id="g3"
     transform="matrix(-0.83034907,0.5572436,0.5572436,0.83034907,61.997439,-20.188986)"
     style="fill:#cccccc"><path
       d="m 27.6,20.4 c -0.6,0.4 -1.4,0.5 -1.9,1 -0.4,0.3 -0.4,0.9 0,1.2 0.4,0.2 0.9,0 1.3,-0.1 0.3,-0.1 0.4,-0.3 0.4,-0.6 0.3,-0.2 0.6,-0.4 0.8,-0.7 0.4,-0.4 -0.1,-1.2 -0.6,-0.8 z"
       id="path5"
       inkscape:connector-curvature="0"
       style="fill:#cccccc" /><path
       d="m 23.6,26.3 c -0.6,0.5 -1.2,1.1 -1.7,1.7 -0.5,0.6 -1.1,1.4 -1.1,2.1 0,0.4 0.5,0.6 0.7,0.3 0.5,-0.5 0.6,-1.3 1,-1.9 0.4,-0.7 0.9,-1.2 1.5,-1.8 0.2,-0.3 -0.2,-0.6 -0.4,-0.4 z"
       id="path7"
       inkscape:connector-curvature="0"
       style="fill:#cccccc" /><path
       d="m 21.2,35.3 c -0.2,-0.8 -0.3,-1.7 -0.3,-2.6 0,-0.3 -0.5,-0.3 -0.5,0 0,1.2 -0.6,3.6 0.6,4.4 0.2,0.2 0.5,-0.1 0.5,-0.3 0,-0.5 -0.2,-1 -0.3,-1.5 z"
       id="path9"
       inkscape:connector-curvature="0"
       style="fill:#cccccc" /><path
       d="m 26.8,39.1 c -1.6,0.2 -3,0.5 -4.5,-0.3 -0.2,-0.1 -0.3,0.1 -0.1,0.2 1.5,1.1 3.2,1.6 4.9,0.7 0.4,-0.2 0,-0.7 -0.3,-0.6 z"
       id="path11"
       inkscape:connector-curvature="0"
       style="fill:#cccccc" /><path
       d="m 34,33.9 c -0.8,0.3 -1.4,0.9 -2.1,1.4 -0.8,0.6 -1.5,1.2 -2.2,1.9 -0.2,0.2 0.1,0.6 0.4,0.4 0.6,-0.6 1.3,-1 2,-1.5 0.7,-0.5 1.6,-0.9 2.2,-1.5 0.3,-0.3 0.1,-0.9 -0.3,-0.7 z"
       id="path13"
       inkscape:connector-curvature="0"
       style="fill:#cccccc" /><path
       d="m 40.7,26.7 c -1.8,0.7 -3.5,2.4 -4.8,3.8 -0.2,0.3 0.1,0.6 0.4,0.4 0.8,-0.7 1.7,-1.4 2.6,-2 0.7,-0.5 1.5,-0.9 2.1,-1.5 0.3,-0.4 0,-0.8 -0.3,-0.7 z"
       id="path15"
       inkscape:connector-curvature="0"
       style="fill:#cccccc" /><path
       d="m 49.6,23 c -1.8,-0.1 -3.6,0.6 -5.2,1.2 -0.3,0.1 -0.2,0.5 0.1,0.5 1.7,-0.5 3.4,-0.7 5.1,-0.8 0.5,-0.1 0.5,-0.9 0,-0.9 z"
       id="path17"
       inkscape:connector-curvature="0"
       style="fill:#cccccc" /><path
       d="m 56.3,26.3 c -0.5,-0.6 -1.2,-1.2 -1.8,-1.7 -0.5,-0.4 -1.1,0.2 -0.7,0.7 0.5,0.5 1,1.1 1.5,1.7 0.5,0.6 1,1.5 1.7,2 0.3,0.2 0.7,-0.1 0.6,-0.5 0,-0.8 -0.7,-1.6 -1.3,-2.2 z"
       id="path19"
       inkscape:connector-curvature="0"
       style="fill:#cccccc" /><path
       d="m 58.2,31.7 c 0,-0.4 -0.7,-0.4 -0.7,0 -0.1,1 -0.3,1.9 -0.5,2.9 -0.2,0.9 -0.7,1.8 -0.7,2.8 0,0.5 0.7,0.7 0.9,0.2 0.9,-1.7 1.1,-4.1 1,-5.9 z"
       id="path21"
       inkscape:connector-curvature="0"
       style="fill:#cccccc" /><path
       d="m 53.9,41.8 c -0.5,0.7 -1,1.4 -1.5,2.1 -0.4,0.7 -1.1,1.4 -1.2,2.2 0,0.4 0.4,0.5 0.7,0.4 0.7,-0.3 1,-1.2 1.3,-1.8 0.5,-0.8 0.9,-1.7 1.4,-2.5 0.2,-0.5 -0.4,-0.8 -0.7,-0.4 z"
       id="path23"
       inkscape:connector-curvature="0"
       style="fill:#cccccc" /><path
       d="m 48.9,49.1 c -0.9,0.8 -1.6,1.6 -2.2,2.5 -0.6,0.9 -1.4,2.2 -1.2,3.3 0.1,0.5 0.6,0.6 0.9,0.2 0.5,-0.7 0.6,-1.7 0.9,-2.5 0.4,-1.2 1.1,-2.3 1.9,-3.3 0.2,-0.1 -0.1,-0.4 -0.3,-0.2 z"
       id="path25"
       inkscape:connector-curvature="0"
       style="fill:#cccccc" /><path
       d="m 43.2,58.9 c -0.9,0.8 -1.6,1.7 -2.2,2.8 -0.6,1.1 -1.3,2.5 -1.1,3.7 0.1,0.4 0.7,0.4 0.8,0.1 0.6,-0.9 0.6,-2.1 1,-3.1 0.4,-1.1 1.1,-2.2 1.9,-3.2 0.2,-0.2 -0.1,-0.6 -0.4,-0.3 z"
       id="path27"
       inkscape:connector-curvature="0"
       style="fill:#cccccc" /><path
       d="m 43.1,74.2 c -0.7,-0.4 -1.3,-0.7 -1.8,-1.3 -0.5,-0.8 -0.7,-2 -0.7,-2.9 0,-0.3 -0.5,-0.3 -0.5,0 -0.2,1.9 0.2,5.2 2.8,5.1 0.4,-0.1 0.6,-0.7 0.2,-0.9 z"
       id="path29"
       inkscape:connector-curvature="0"
       style="fill:#cccccc" /><path
       d="m 53.7,77.7 c -1.1,-0.1 -2.2,0.1 -3.3,0.1 -1.4,-0.1 -2.7,-0.5 -3.8,-1.3 -0.2,-0.1 -0.3,0.2 -0.2,0.3 2.1,1.6 5,3 7.6,1.9 0.5,-0.3 0.2,-1 -0.3,-1 z"
       id="path31"
       inkscape:connector-curvature="0"
       style="fill:#cccccc" /><path
       d="m 62.2,70.9 c -0.7,0.4 -1.3,1 -2.1,1.5 -0.7,0.4 -1.5,0.6 -2.3,0.7 -0.5,0.1 -0.5,0.8 0,0.8 1.8,0.1 4.1,-0.5 5.1,-2.2 0.4,-0.5 -0.2,-1 -0.7,-0.8 z"
       id="path33"
       inkscape:connector-curvature="0"
       style="fill:#cccccc" /><path
       d="m 66.3,64.9 c -1.3,1.3 -2.7,2.7 -3.6,4.3 -0.3,0.5 0.4,0.8 0.7,0.4 1.1,-1.4 2.9,-2.4 3.7,-4.1 0.1,-0.5 -0.4,-1 -0.8,-0.6 z"
       id="path35"
       inkscape:connector-curvature="0"
       style="fill:#cccccc" /><path
       d="m 73.8,65 c -0.3,-0.6 -1.1,-1 -1.7,-1.3 -0.7,-0.3 -1.5,-0.4 -2.3,-0.4 -0.5,0 -0.5,0.7 0,0.7 0.7,0 1.3,0.2 1.9,0.5 0.5,0.3 0.9,0.8 1.4,1.1 0.4,0.3 0.9,-0.2 0.7,-0.6 z"
       id="path37"
       inkscape:connector-curvature="0"
       style="fill:#cccccc" /><path
       d="m 79.8,68.9 c -1.4,-2.3 -2.3,-4.9 -3.5,-7.3 -0.6,-1.1 -2.2,-0.1 -1.7,1 0.9,2 1.7,4.1 2.9,6 -0.9,0.1 -1.8,0.2 -2.8,0.3 -0.4,0.1 -1.1,0.1 -1.4,0.5 0,0 -0.1,0.1 -0.1,0.1 0,0 -0.1,0 -0.1,0.1 -0.2,0.2 0,0.6 0.2,0.6 0,0 0,0 0,0 0.1,0.1 0.2,0.1 0.4,0.1 0.5,0.1 1,0 1.6,0 1.3,-0.1 2.5,-0.2 3.8,-0.1 0.6,0.1 1,-0.7 0.7,-1.3 z"
       id="path39"
       inkscape:connector-curvature="0"
       style="fill:#cccccc" /></g></svg>