<?xml version="1.0" encoding="UTF-8" standalone="no"?>
<!-- Generator: Adobe Illustrator 16.2.1, SVG Export Plug-In . SVG Version: 6.00 Build 0)  -->

<svg
   xmlns:dc="http://purl.org/dc/elements/1.1/"
   xmlns:cc="http://creativecommons.org/ns#"
   xmlns:rdf="http://www.w3.org/1999/02/22-rdf-syntax-ns#"
   xmlns:svg="http://www.w3.org/2000/svg"
   xmlns="http://www.w3.org/2000/svg"
   xmlns:sodipodi="http://sodipodi.sourceforge.net/DTD/sodipodi-0.dtd"
   xmlns:inkscape="http://www.inkscape.org/namespaces/inkscape"
   version="1.1"
   id="Layer_1"
   x="0px"
   y="0px"
   width="368.94141"
   height="405.33008"
   viewBox="0 0 368.94141 405.33008"
   xml:space="preserve"
   inkscape:version="0.91 r13725"
   sodipodi:docname="contact.svg"><metadata
     id="metadata9"><rdf:RDF><cc:Work
         rdf:about=""><dc:format>image/svg+xml</dc:format><dc:type
           rdf:resource="http://purl.org/dc/dcmitype/StillImage" /><dc:title /></cc:Work></rdf:RDF></metadata><defs
     id="defs7" /><sodipodi:namedview
     pagecolor="#ffffff"
     bordercolor="#666666"
     borderopacity="1"
     objecttolerance="10"
     gridtolerance="10"
     guidetolerance="10"
     inkscape:pageopacity="0"
     inkscape:pageshadow="2"
     inkscape:window-width="968"
     inkscape:window-height="998"
     id="namedview5"
     showgrid="false"
     fit-margin-top="30"
     fit-margin-left="0"
     fit-margin-right="0"
     fit-margin-bottom="0"
     inkscape:zoom="1.3037281"
     inkscape:cx="202.85347"
     inkscape:cy="144.77042"
     inkscape:window-x="20"
     inkscape:window-y="62"
     inkscape:window-maximized="0"
     inkscape:current-layer="Layer_1" /><path
     d="m 175.77148,30 c -31.4,2 -48.8,16.3 -58,28 -14.5,18.5 -16.9,40.800781 -15,51.30078 2.8,15.3 3.89961,35.00078 3.09961,38.80078 -0.2,0.7 -0.39961,1.19883 -0.59961,1.79883 -2.1,5.5 -3.70039,11.39961 -0.40039,27.59961 3.7,18.4 9.39961,28.00039 13.59961,32.90039 1.5,11.4 5.69922,23.99961 9.19922,31.59961 2.6,5.5 3.80078,13.00156 3.80078,23.60156 0,9.9 -0.39961,9.99922 -2.59961,10.69922 C 113.15526,280.94282 33.09331,305.73741 0,326.55078 l 0,78.7793 368.9414,0 0,-75.94922 c -32.34935,-22.67563 -117.5908,-49.48654 -131.07031,-53.48047 -2.4,-0.7 -2.70117,-0.89922 -2.70117,-10.69922 0,-8.1 3.30156,-16.30078 6.60156,-23.30078 3.6,-7.5 7.69922,-20.19961 9.19922,-31.59961 4.2,-4.9 9.99961,-14.50039 13.59961,-32.90039 3.2,-16.2 1.69961,-22.09961 -0.40039,-27.59961 -0.2,-0.6 -0.49961,-1.19922 -0.59961,-1.69922 -0.8,-3.8 0.29961,-23.50078 3.09961,-38.80078 C 268.56992,98.800781 266.17148,76.5 251.77148,58 c -9.1,-11.7 -26.6,-26 -58.5,-28 l -17.5,0 z"
     id="path3"
     inkscape:connector-curvature="0"
     style="fill:#808080" /></svg>