<?xml version="1.0" encoding="UTF-8" standalone="no"?>
<!-- Generator: Adobe Illustrator 18.1.0, SVG Export Plug-In . SVG Version: 6.00 Build 0)  -->

<svg
   xmlns:dc="http://purl.org/dc/elements/1.1/"
   xmlns:cc="http://creativecommons.org/ns#"
   xmlns:rdf="http://www.w3.org/1999/02/22-rdf-syntax-ns#"
   xmlns:svg="http://www.w3.org/2000/svg"
   xmlns="http://www.w3.org/2000/svg"
   xmlns:sodipodi="http://sodipodi.sourceforge.net/DTD/sodipodi-0.dtd"
   xmlns:inkscape="http://www.inkscape.org/namespaces/inkscape"
   version="1.1"
   id="Capa_1"
   x="0px"
   y="0px"
   viewBox="0 0 100 100"
   enable-background="new 0 0 100 100"
   xml:space="preserve"
   inkscape:version="0.91 r13725"
   sodipodi:docname="login.svg"><metadata
     id="metadata41"><rdf:RDF><cc:Work
         rdf:about=""><dc:format>image/svg+xml</dc:format><dc:type
           rdf:resource="http://purl.org/dc/dcmitype/StillImage" /></cc:Work></rdf:RDF></metadata><defs
     id="defs39" /><sodipodi:namedview
     pagecolor="#ffffff"
     bordercolor="#666666"
     borderopacity="1"
     objecttolerance="10"
     gridtolerance="10"
     guidetolerance="10"
     inkscape:pageopacity="0"
     inkscape:pageshadow="2"
     inkscape:window-width="892"
     inkscape:window-height="998"
     id="namedview37"
     showgrid="false"
     inkscape:zoom="26.700352"
     inkscape:cx="43.610511"
     inkscape:cy="41.641355"
     inkscape:window-x="1008"
     inkscape:window-y="62"
     inkscape:window-maximized="0"
     inkscape:current-layer="g3" /><g
     id="g3"
     transform="matrix(-1.1151189,0.18752608,0.23597601,0.8861658,88.58765,-4.6642869)"><path
       d="m 20.8,44.6 c -0.6,1 -1.1,2.7 -0.7,3.9 0.2,0.4 0.7,0.4 0.8,0 0.2,-0.6 0.1,-1.2 0.1,-1.8 0,-0.6 0.1,-1.2 0.3,-1.8 0.2,-0.4 -0.3,-0.6 -0.5,-0.3 z"
       id="path5"
       inkscape:connector-curvature="0"
       style="fill:#575756" /><path
       d="m 23,56 c -0.2,-0.6 -0.8,-1.1 -1.2,-1.6 -0.5,-0.7 -1,-1.5 -1.1,-2.4 0,-0.2 -0.3,-0.2 -0.3,0 0,0.9 0.2,1.7 0.5,2.6 0.3,0.7 0.8,1.6 1.6,1.9 0.3,0.1 0.6,-0.2 0.5,-0.5 z"
       id="path7"
       inkscape:connector-curvature="0"
       style="fill:#575756" /><path
       d="M 30.5,57.4 C 30,57 29.4,56.8 29,56.3 28.6,56 28.3,55.5 28,55 c -0.1,-0.2 -0.6,-0.1 -0.5,0.2 0.5,1.1 1.2,2.5 2.4,2.8 -1.3,0.2 -2.4,0.7 -3.7,0.1 -0.1,-0.1 -0.2,0.2 -0.1,0.2 1.2,0.6 3.1,0.8 4.3,0.1 0.2,-0.1 0.2,-0.4 0,-0.5 0.3,0 0.3,-0.4 0.1,-0.5 z"
       id="path9"
       inkscape:connector-curvature="0"
       style="fill:#575756" /><path
       d="m 35.7,52.3 c -0.4,0.7 -0.6,1.4 -1,2.1 -0.4,0.7 -0.9,1.4 -1.4,2 -0.2,0.2 0.1,0.5 0.3,0.3 1.2,-1 2.5,-2.6 2.8,-4.2 0.1,-0.3 -0.4,-0.6 -0.7,-0.2 z"
       id="path11"
       inkscape:connector-curvature="0"
       style="fill:#575756" /><path
       d="m 35.3,49.2 c -0.6,-0.8 -1.2,-1.7 -2.1,-2.2 -0.4,-0.2 -0.9,0.2 -0.7,0.7 0.5,0.9 1.5,1.5 2.2,2.1 0.4,0.1 0.8,-0.3 0.6,-0.6 z"
       id="path13"
       inkscape:connector-curvature="0"
       style="fill:#575756" /><path
       d="m 29.1,48.7 c -0.6,0.5 -1,1.1 -1.4,1.8 -0.3,0.6 -0.8,1.3 -0.9,1.9 -0.1,0.4 0.4,0.8 0.7,0.4 0.4,-0.5 0.6,-1.1 0.8,-1.6 0.3,-0.8 0.6,-1.5 1.2,-2.1 0.3,-0.3 -0.1,-0.6 -0.4,-0.4 z"
       id="path15"
       inkscape:connector-curvature="0"
       style="fill:#575756" /><path
       d="m 40.5,58.3 c -1.7,0.8 -3,1 -4.8,0.6 -0.4,-0.1 -0.6,0.5 -0.2,0.6 1.9,0.6 4,0.9 5.6,-0.5 0.4,-0.3 -0.2,-0.9 -0.6,-0.7 z"
       id="path17"
       inkscape:connector-curvature="0"
       style="fill:#575756" /><path
       d="m 50.3,53.7 c -1.1,0.6 -2,1.5 -3,2.2 -0.7,-0.9 -1.8,-1.7 -2.8,-2.1 -0.4,-0.2 -0.7,0.3 -0.3,0.6 0.9,0.6 1.6,1.4 2.4,2.1 -0.2,0.3 0.1,0.7 0.5,0.5 0,0 0.1,0 0.1,-0.1 0,0 0,0 0,0 0.2,0.1 0.5,0 0.5,-0.3 1.2,-0.6 2.5,-1.3 3.2,-2.4 0.3,-0.3 -0.2,-0.7 -0.6,-0.5 z"
       id="path19"
       inkscape:connector-curvature="0"
       style="fill:#575756" /><path
       d="m 53.3,46.5 c -0.4,0.5 -0.5,1.2 -0.8,1.8 -0.3,0.9 -0.6,1.7 -1.2,2.4 -0.2,0.3 0.1,0.7 0.4,0.4 0.6,-0.6 1.1,-1.2 1.5,-2 0.4,-0.7 0.9,-1.6 0.8,-2.4 0,-0.2 -0.4,-0.5 -0.7,-0.2 z"
       id="path21"
       inkscape:connector-curvature="0"
       style="fill:#575756" /><path
       d="m 52.4,43 c -0.5,-1.3 -1.1,-2.4 -2.2,-3.2 -0.3,-0.2 -0.7,0.2 -0.5,0.5 0.6,1.1 1.4,2.1 2,3.1 0.3,0.5 0.9,0.1 0.7,-0.4 z"
       id="path23"
       inkscape:connector-curvature="0"
       style="fill:#575756" /><path
       d="m 46.9,38.8 c -1.7,-0.1 -3.6,0.7 -4.5,2.1 -0.3,0.4 0.2,0.9 0.6,0.6 1.3,-0.8 2.3,-2 3.9,-2.2 0.4,0 0.4,-0.5 0,-0.5 z"
       id="path25"
       inkscape:connector-curvature="0"
       style="fill:#575756" /><path
       d="m 42.9,48 c -0.1,-0.7 0,-1.4 0.2,-2.1 0.1,-0.4 -0.4,-0.5 -0.6,-0.2 -0.5,1.3 -1,3.2 -0.1,4.4 0.3,0.3 0.8,0.2 0.8,-0.2 0,-0.6 -0.2,-1.2 -0.3,-1.9 z"
       id="path27"
       inkscape:connector-curvature="0"
       style="fill:#575756" /><path
       d="M 56.7,58.8 C 54.8,59 53,59.5 51.1,59 c -0.3,-0.1 -0.4,0.4 -0.1,0.5 2.308976,0.413072 4.06302,0.547304 6.099346,0.03102 C 57.499346,59.331024 57.3,58.7 56.7,58.8 Z"
       id="path29"
       inkscape:connector-curvature="0"
       style="fill:#575756"
       sodipodi:nodetypes="ccccc" /><path
       d="m 64.6,58.4 c -1,-0.2 -2.1,0 -3.2,0.1 -0.4,0 -0.4,0.6 0,0.6 1.1,0.1 2.278819,0.223551 3.278819,0.02355 C 64.978819,58.923551 64.9,58.4 64.6,58.4 Z"
       id="path31"
       inkscape:connector-curvature="0"
       style="fill:#575756"
       sodipodi:nodetypes="ccccc" /><path
       d="m 71.2,57.8 c -0.5,0 -1.051576,0.428833 -1.551576,0.628833 C 68.948424,58.528833 68.3,58.4 67.6,58.5 c -0.4,0 -0.4,0.6 0,0.6 1.1,0.1 3,0.4 3.9,-0.5 0.2,-0.3 0.1,-0.8 -0.3,-0.8 z"
       id="path33"
       inkscape:connector-curvature="0"
       style="fill:#575756"
       sodipodi:nodetypes="sccccs" /><path
       d="m 78.5,57.1 c -1.2,-0.9 -2.3,-1.9 -3.5,-2.8 -1,-0.8 -2,-1.8 -3.3,-1.9 -0.5,0 -0.9,0.6 -0.6,1 1.691216,0.273475 3.400119,1.683495 4.127345,2.541218 0.7,0.6 1.4,1.2 2.2,1.8 -1.6,0.8 -3.781934,1.744308 -5.481934,2.244308 C 71.245411,60.285526 71.2,61 71.9,60.9 c 2.3,-0.4 4.4,-1.5 6.5,-2.4 0.4,-0.3 0.5,-1.1 0.1,-1.4 z"
       id="path35"
       inkscape:connector-curvature="0"
       style="fill:#575756"
       sodipodi:nodetypes="sccccccccs" /></g></svg>