<?xml version="1.0" encoding="UTF-8" standalone="no"?>
<!-- Generator: Adobe Illustrator 18.1.0, SVG Export Plug-In . SVG Version: 6.00 Build 0)  -->

<svg
   xmlns:dc="http://purl.org/dc/elements/1.1/"
   xmlns:cc="http://creativecommons.org/ns#"
   xmlns:rdf="http://www.w3.org/1999/02/22-rdf-syntax-ns#"
   xmlns:svg="http://www.w3.org/2000/svg"
   xmlns="http://www.w3.org/2000/svg"
   xmlns:sodipodi="http://sodipodi.sourceforge.net/DTD/sodipodi-0.dtd"
   xmlns:inkscape="http://www.inkscape.org/namespaces/inkscape"
   version="1.1"
   id="Capa_1"
   x="0px"
   y="0px"
   viewBox="0 0 100 100"
   enable-background="new 0 0 100 100"
   xml:space="preserve"
   inkscape:version="0.91 r13725"
   sodipodi:docname="match.svg"><metadata
     id="metadata9"><rdf:RDF><cc:Work
         rdf:about=""><dc:format>image/svg+xml</dc:format><dc:type
           rdf:resource="http://purl.org/dc/dcmitype/StillImage" /></cc:Work></rdf:RDF></metadata><defs
     id="defs7" /><sodipodi:namedview
     pagecolor="#ffffff"
     bordercolor="#666666"
     borderopacity="1"
     objecttolerance="10"
     gridtolerance="10"
     guidetolerance="10"
     inkscape:pageopacity="0"
     inkscape:pageshadow="2"
     inkscape:window-width="892"
     inkscape:window-height="998"
     id="namedview5"
     showgrid="false"
     inkscape:zoom="2.36"
     inkscape:cx="50"
     inkscape:cy="50"
     inkscape:window-x="1008"
     inkscape:window-y="62"
     inkscape:window-maximized="0"
     inkscape:current-layer="Capa_1" /><path
     d="m 22.380348,49.9 c 3.8,-1.7 6.9,-4.2 10.3,-6.5 0.6,-0.4 1.8,0 1.9,0.8 0.2,1.5 0.5,3 0.6,4.5 3.9,0 7.9,0 11.8,0 0.6,0 1.1,0.4 1.2,0.9 1.6,5.7 2.4,12 5.1,17.3 0.1,0.2 0.2,0.3 0.2,0.4 0.2,-0.6 0.3,-1.3 0.5,-1.8 0.3,-1.4 0.5,-2.8 0.6,-4.3 0.1,-2.4 0,-4.9 0,-7.3 0,-2.4 -0.9,-27.6 5.9,-23 6.3,4.2 4.6,14.1 4,20.3 -0.3,3.2 -0.4,6.5 1.1,9.5 2.1,4.3 3.5,-0.7 3.8,-2.6 0.7,-3.8 0.6,-7.8 0.8,-11.6 0.1,-2 1,-13.4 5.6,-9.4 7,6 5.4,17.6 3.6,25.5 -0.2,1 -1.7,0.6 -1.6,-0.4 0.8,-5.7 1.4,-11.5 0,-17.2 -0.3,-1 -3.3,-8.1 -4.4,-4.6 -0.6,2 -0.7,4.1 -0.9,6.2 -0.3,4.3 1,15.4 -3.4,18.1 -6.5,4.1 -7.4,-10.6 -7.2,-13.5 0.4,-5.8 1.7,-11.2 -1.5,-16.5 -1.8,-3 -2.2,-1.2 -2.7,1.3 -1.2,6.1 -0.8,12.6 -0.8,18.7 0.1,4.7 0.6,10 -1.6,14.3 -2.3,4.7 -5.6,-3.7 -6,-5.1 -1.1,-3.3 -1.9,-6.7 -2.7,-10.1 -0.2,-0.7 -0.3,-1.4 -0.5,-2.1 -0.4,-1.4 0.1,-0.6 -1,-0.6 -3.3,0 -6.6,0 -9.9,0 0,1 -0.2,1.9 -0.4,2.8 0.2,0.7 -0.4,1.4 -1.2,1.2 -3.6,-1.1 -7.2,-2.3 -11,-2.9 -0.9,-0.1 -1.2,-1.9 -0.2,-2.3 z m 10.6,2.3 c -0.1,-1.9 -0.3,-3.7 -0.6,-5.5 -1.8,1.3 -3.7,2.6 -5.6,3.8 1.1,0.3 2.2,0.5 3.3,0.9 1,0.2 2,0.4 2.9,0.8 z"
     id="path3"
     inkscape:connector-curvature="0"
     style="fill:#b3b3b3" /></svg>