<?xml version="1.0" encoding="UTF-8" standalone="no"?>
<!-- Generator: Adobe Illustrator 18.1.0, SVG Export Plug-In . SVG Version: 6.00 Build 0)  -->

<svg
   xmlns:dc="http://purl.org/dc/elements/1.1/"
   xmlns:cc="http://creativecommons.org/ns#"
   xmlns:rdf="http://www.w3.org/1999/02/22-rdf-syntax-ns#"
   xmlns:svg="http://www.w3.org/2000/svg"
   xmlns="http://www.w3.org/2000/svg"
   xmlns:sodipodi="http://sodipodi.sourceforge.net/DTD/sodipodi-0.dtd"
   xmlns:inkscape="http://www.inkscape.org/namespaces/inkscape"
   version="1.1"
   id="Capa_1"
   x="0px"
   y="0px"
   viewBox="0 0 100 100"
   enable-background="new 0 0 100 100"
   xml:space="preserve"
   inkscape:version="0.91 r13725"
   sodipodi:docname="right arrow12.svg"><metadata
     id="metadata45"><rdf:RDF><cc:Work
         rdf:about=""><dc:format>image/svg+xml</dc:format><dc:type
           rdf:resource="http://purl.org/dc/dcmitype/StillImage" /></cc:Work></rdf:RDF></metadata><defs
     id="defs43" /><sodipodi:namedview
     pagecolor="#ffffff"
     bordercolor="#666666"
     borderopacity="1"
     objecttolerance="10"
     gridtolerance="10"
     guidetolerance="10"
     inkscape:pageopacity="0"
     inkscape:pageshadow="2"
     inkscape:window-width="892"
     inkscape:window-height="998"
     id="namedview41"
     showgrid="false"
     inkscape:zoom="2.36"
     inkscape:cx="50"
     inkscape:cy="50"
     inkscape:window-x="1008"
     inkscape:window-y="62"
     inkscape:window-maximized="0"
     inkscape:current-layer="Capa_1" /><g
     id="g3"
     transform="matrix(-0.99978452,-0.59254257,0.61072426,-0.97002023,63.208405,123.82966)"><path
       d="m 24.1,57.8 c -0.7,-0.5 -1.8,0.2 -2.5,-0.4 -0.4,-0.3 -1,0.2 -0.6,0.6 0.4,0.4 0.8,0.5 1.3,0.6 0.5,0.1 1.3,0.3 1.8,0 0.3,-0.2 0.3,-0.6 0,-0.8 z"
       id="path5"
       inkscape:connector-curvature="0"
       style="fill:#575756" /><path
       d="m 31.7,58.3 c -0.5,-0.2 -1,-0.1 -1.5,0 -0.6,0 -1.1,0.1 -1.7,0.1 -0.5,0 -0.5,0.7 0,0.7 0.6,0.1 1.1,0.1 1.7,0.1 0.5,0 1.1,0.1 1.5,0 0.4,-0.2 0.4,-0.7 0,-0.9 z"
       id="path7"
       inkscape:connector-curvature="0"
       style="fill:#575756" /><path
       d="m 39.5,57.8 c -1.3,-0.2 -2.4,0.5 -3.7,0.6 -0.4,0 -0.4,0.6 0,0.6 0.5,0 1.1,-0.1 1.6,-0.1 0.7,-0.1 1.4,-0.1 2.1,-0.3 0.4,0 0.4,-0.7 0,-0.8 z"
       id="path9"
       inkscape:connector-curvature="0"
       style="fill:#575756" /><path
       d="m 46.4,55.8 c -0.5,0.2 -0.8,0.7 -1.2,1 -0.4,0.3 -0.8,0.5 -1.3,0.6 -0.4,0.1 -0.2,0.6 0.1,0.6 0.5,0.1 1,-0.1 1.5,-0.3 0.5,-0.3 1.2,-0.8 1.4,-1.3 0.2,-0.4 -0.1,-0.8 -0.5,-0.6 z"
       id="path11"
       inkscape:connector-curvature="0"
       style="fill:#575756" /><path
       d="m 52.1,49.1 c -0.5,0.3 -0.6,0.8 -0.8,1.3 -0.3,0.7 -0.8,1.3 -1.2,1.9 -0.3,0.3 0.1,0.8 0.5,0.5 0.5,-0.5 1,-1 1.4,-1.5 0.3,-0.5 0.9,-1.2 0.8,-1.8 -0.1,-0.3 -0.4,-0.6 -0.7,-0.4 z"
       id="path13"
       inkscape:connector-curvature="0"
       style="fill:#575756" /><path
       d="m 53.7,43.1 c -0.1,-0.4 -0.8,-0.4 -0.8,0 -0.2,1.1 0.1,2.1 -0.4,3.1 -0.1,0.3 0.3,0.5 0.5,0.2 0.5,-0.9 0.9,-2.1 0.7,-3.3 z"
       id="path15"
       inkscape:connector-curvature="0"
       style="fill:#575756" /><path
       d="m 51.7,35.2 c -0.3,-0.6 -1.2,-0.1 -0.9,0.5 0.4,0.9 1,1.8 1.2,2.8 0,0.4 0.6,0.4 0.6,0 0.1,-1.1 -0.3,-2.3 -0.9,-3.3 z"
       id="path17"
       inkscape:connector-curvature="0"
       style="fill:#575756" /><path
       d="m 48,33.2 c -0.3,-0.6 -0.7,-1.1 -1.3,-1.4 -0.5,-0.3 -1.4,-0.7 -1.9,-0.2 -0.2,0.2 -0.2,0.5 0,0.6 0.3,0.3 0.9,0.2 1.3,0.3 0.6,0.2 1,0.6 1.3,1.1 0.2,0.5 0.8,0.1 0.6,-0.4 z"
       id="path19"
       inkscape:connector-curvature="0"
       style="fill:#575756" /><path
       d="m 39.9,31 c -0.6,0 -1.3,0.1 -1.9,0.3 -0.3,0.1 -0.5,0.5 -0.2,0.8 0.2,0.2 0.8,0.2 1.1,0.1 0.2,0 0.3,-0.2 0.3,-0.4 0.2,-0.1 0.5,-0.1 0.7,-0.1 0.5,0 0.5,-0.7 0,-0.7 z"
       id="path21"
       inkscape:connector-curvature="0"
       style="fill:#575756" /><path
       d="m 34.2,34.6 c -0.8,0 -1.5,0.2 -2,0.7 -0.3,0.3 -0.5,0.6 -0.6,0.9 -0.2,0.4 -0.5,0.9 -0.5,1.3 0,0.4 0.6,0.8 0.9,0.4 0.4,-0.4 0.5,-1.2 0.8,-1.7 0.3,-0.6 0.8,-0.8 1.4,-0.9 0.4,0 0.5,-0.6 0,-0.7 z"
       id="path23"
       inkscape:connector-curvature="0"
       style="fill:#575756" /><path
       d="m 31.9,42 c -0.7,0.7 -0.7,1.7 -0.8,2.6 0,0.2 0.1,0.4 0.3,0.5 0.2,0.1 0.3,0.1 0.5,0 0.2,-0.1 0.3,-0.3 0.3,-0.5 C 32.1,43.9 32,43 32.5,42.4 32.6,42.1 32.2,41.7 31.9,42 Z"
       id="path25"
       inkscape:connector-curvature="0"
       style="fill:#575756" /><path
       d="m 33.2,50.4 c -0.1,-0.5 -0.2,-1 -0.3,-1.5 0,-0.3 -0.5,-0.3 -0.5,0 -0.1,0.6 -0.2,1.2 -0.1,1.8 0,0.5 0.2,1.2 0.8,1.3 0.3,0 0.6,-0.1 0.6,-0.4 -0.1,-0.5 -0.4,-0.8 -0.5,-1.2 z"
       id="path27"
       inkscape:connector-curvature="0"
       style="fill:#575756" /><path
       d="m 37,56.4 c -0.8,-0.7 -1.9,-1.2 -2.1,-2.3 0,-0.3 -0.5,-0.3 -0.5,0 0,1.2 1.1,2.6 2.2,2.9 0.4,0.1 0.7,-0.3 0.4,-0.6 z"
       id="path29"
       inkscape:connector-curvature="0"
       style="fill:#575756" /><path
       d="m 44.2,61.5 c -0.9,-0.6 -2.1,-1 -3.1,-1.5 -0.4,-0.2 -0.7,0.3 -0.3,0.5 1,0.6 2,1.3 3.2,1.7 0.3,0.2 0.6,-0.5 0.2,-0.7 z"
       id="path31"
       inkscape:connector-curvature="0"
       style="fill:#575756" /><path
       d="m 52.9,61.5 c -1.2,-0.4 -2.8,0 -3.9,0.6 -0.4,0.2 -0.1,0.8 0.3,0.7 1.2,-0.5 2.4,-0.2 3.6,-0.5 0.3,-0.2 0.3,-0.7 0,-0.8 z"
       id="path33"
       inkscape:connector-curvature="0"
       style="fill:#575756" /><path
       d="m 62,60.8 c -0.5,0.1 -1,0.3 -1.6,0.4 -0.5,0.1 -1,0.2 -1.5,0.3 -0.3,0.1 -0.3,0.5 0,0.6 1.2,0.2 2.5,0.3 3.5,-0.5 0.5,-0.3 0,-0.9 -0.4,-0.8 z"
       id="path35"
       inkscape:connector-curvature="0"
       style="fill:#575756" /><path
       d="m 69.8,60.9 c -0.4,0 -0.8,0.2 -1.2,0.3 -0.6,0.1 -1.2,-0.1 -1.7,-0.3 -0.5,-0.2 -0.8,0.6 -0.3,0.8 1,0.5 2.8,0.9 3.6,0 0.2,-0.3 0.1,-0.9 -0.4,-0.8 z"
       id="path37"
       inkscape:connector-curvature="0"
       style="fill:#575756" /><path
       d="m 77.2,60.1 c -1.1,-0.9 -2.3,-1.7 -3.4,-2.5 -1.1,-0.8 -2.4,-2 -3.7,-2.3 -0.6,-0.1 -1.3,0.5 -0.9,1.2 0.6,0.9 1.6,1.4 2.5,2 1.1,0.7 2.2,1.5 3.2,2.2 -2.9,2 -6,3.9 -8.6,6.3 -0.5,0.5 0.2,1.4 0.8,1 3.2,-2.3 6.6,-4.4 10,-6.4 0.4,-0.3 0.6,-1.1 0.1,-1.5 z"
       id="path39"
       inkscape:connector-curvature="0"
       style="fill:#575756" /></g></svg>